<?xml version="1.0" encoding="UTF-8" standalone="no"?>
<svg width="339px" height="86px" viewBox="0 0 339 86" version="1.1" xmlns="http://www.w3.org/2000/svg" xmlns:xlink="http://www.w3.org/1999/xlink">
    <!-- Generator: Sketch 3.8.3 (29802) - http://www.bohemiancoding.com/sketch -->
    <title>Bold</title>
    <desc>Created with Sketch.</desc>
    <defs>
        <linearGradient x1="0%" y1="0%" x2="185.085916%" y2="205.936251%" id="linearGradient-1">
            <stop stop-color="#FB4E80" offset="0%"></stop>
            <stop stop-color="#65D6EC" offset="100%"></stop>
        </linearGradient>
        <linearGradient x1="0%" y1="0%" x2="84.6146228%" y2="100%" id="linearGradient-2">
            <stop stop-color="#B4E3EF" offset="0%"></stop>
            <stop stop-color="#7DC3D9" offset="100%"></stop>
        </linearGradient>
    </defs>
    <g id="Page-1" stroke="none" stroke-width="1" fill="none" fill-rule="evenodd">
        <g id="Bold" transform="translate(-5.000000, 0.000000)">
            <text id="co" font-family="Menlo-Bold, Menlo" font-size="72" font-weight="bold" fill="#A7A7A7">
                <tspan x="0" y="71">co</tspan>
            </text>
            <text id="igure" font-family="Menlo-Bold, Menlo" font-size="72" font-weight="bold" fill="#A7A7A7">
                <tspan x="130" y="71">igure</tspan>
            </text>
            <path d="M100.539062,9.03125 L90.859375,14.2578125 L100.5625,19.53125 L98.5,23.09375 L89.3359375,17.5625 L89.3359375,27.8046875 L85.1875,27.8046875 L85.1875,17.5859375 C83.7031176,18.476567 82.1718829,19.3984327 80.59375,20.3515625 C79.0156171,21.3046923 77.4921948,22.2187456 76.0234375,23.09375 L73.984375,19.53125 L83.7109375,14.2578125 L74.0078125,9.03125 L76.0234375,5.4453125 L85.1875,10.953125 L85.1875,0.734375 L89.3359375,0.734375 L89.3359375,10.953125 C90.835945,10.0624955 92.3710859,9.14062977 93.9414062,8.1875 C95.5117266,7.23437023 97.0312427,6.32031687 98.5,5.4453125 L100.539062,9.03125 Z" id="*" fill="url(#linearGradient-1)"></path>
            <path d="M116.09375,28.953125 L115.53125,31.625 L127.625,31.625 L126.113281,39.5351562 L114.019531,39.5351562 L107.902344,71 L97.6015625,71 L103.71875,39.5351562 L94.1210938,39.5351562 L95.6328125,31.625 L105.230469,31.625 L105.792969,28.8828125 C106.777349,23.9374753 108.347645,20.6035242 110.503906,18.8808594 C112.660167,17.1581945 116.539034,16.296875 122.140625,16.296875 L130.578125,16.296875 L129.066406,24.2070312 L120.980469,24.2070312 C119.457024,24.2070312 118.355472,24.5292937 117.675781,25.1738281 C116.99609,25.8183626 116.468752,27.0781156 116.09375,28.953125 L116.09375,28.953125 Z" id="f" fill="url(#linearGradient-2)"></path>
        </g>
    </g>
</svg>