<?xml version="1.0" encoding="UTF-8" standalone="no"?>
<svg width="347px" height="84px" viewBox="0 0 347 84" version="1.1" xmlns="http://www.w3.org/2000/svg" xmlns:xlink="http://www.w3.org/1999/xlink">
    <!-- Generator: Sketch 3.8.3 (29802) - http://www.bohemiancoding.com/sketch -->
    <title>cofigure</title>
    <desc>Created with Sketch.</desc>
    <defs>
        <linearGradient x1="29.3565684%" y1="26.1101499%" x2="162.01966%" y2="185.121107%" id="linearGradient-1">
            <stop stop-color="#FC4D80" offset="0%"></stop>
            <stop stop-color="#65D6EC" offset="100%"></stop>
        </linearGradient>
        <linearGradient x1="-246.619096%" y1="-170.45844%" x2="100%" y2="100%" id="linearGradient-2">
            <stop stop-color="#F92672" offset="0%"></stop>
            <stop stop-color="#65D6EC" offset="100%"></stop>
        </linearGradient>
    </defs>
    <g id="Page-1" stroke="none" stroke-width="1" fill="none" fill-rule="evenodd">
        <text id="co" font-family="Menlo-Regular, Menlo" font-size="72" font-weight="normal" fill="#A7A7A7">
            <tspan x="0" y="67">co</tspan>
        </text>
        <polygon id="*" fill="url(#linearGradient-1)" points="100.226562 7.921875 89.8203125 13.546875 100.226562 19.1953125 98.5859375 22.0546875 88.7890625 16.171875 88.7890625 27.09375 85.4375 27.09375 85.4375 16.171875 75.640625 22.0546875 74 19.1953125 84.4296875 13.546875 74 7.921875 75.640625 5.0390625 85.4375 10.921875 85.4375 0 88.7890625 0 88.7890625 10.921875 98.5859375 5.0390625"></polygon>
        <text id="igure" font-family="Menlo-Regular, Menlo" font-size="72" font-weight="normal" fill="#A7A7A7">
            <tspan x="130" y="67">igure</tspan>
        </text>
        <path d="M129.769531,12.296875 L128.679688,17.6757812 L121.367188,17.6757812 C119.140614,17.6757812 117.464849,18.1621045 116.339844,19.1347656 C115.214838,20.1074267 114.417971,21.7773319 113.949219,24.1445312 L113.210938,27.625 L126.746094,27.625 L125.832031,32.6523438 L112.296875,32.6523438 L105.582031,67 L99.1132812,67 L105.792969,32.6523438 L95.28125,32.6523438 L96.3007812,27.625 L106.742188,27.625 L107.304688,24.8828125 C108.195317,20.3593524 109.771473,17.130869 112.033203,15.1972656 C114.294933,13.2636622 117.617166,12.296875 122,12.296875 L129.769531,12.296875 Z" id="f" fill="url(#linearGradient-2)"></path>
    </g>
</svg>